<svg xmlns="http://www.w3.org/2000/svg" viewBox="0 0 64 64" width="64" height="64">
    <!-- Sun -->
    <circle cx="32" cy="32" r="12" fill="#FFD700"/>
    <!-- Sun Rays -->
    <g stroke="#FFD700" stroke-width="4" stroke-linecap="round">
        <line x1="32" y1="6" x2="32" y2="0"/>
        <line x1="32" y1="58" x2="32" y2="64"/>
        <line x1="6" y1="32" x2="0" y2="32"/>
        <line x1="58" y1="32" x2="64" y2="32"/>
        <line x1="50" y1="14" x2="56" y2="8"/>
        <line x1="14" y1="50" x2="8" y2="56"/>
        <line x1="50" y1="50" x2="56" y2="56"/>
        <line x1="14" y1="14" x2="8" y2="8"/>
    </g>
    <!-- Cloud -->
    <path d="M50 42a10 10 0 0 1-10 10H20a10 10 0 1 1 0-20h2a8 8 0 0 1 16 0h2a10 10 0 0 1 10 10z" fill="#B0C4DE"/>
</svg>
